<?xml version="1.0" encoding="UTF-8" standalone="no"?><svg xmlns="http://www.w3.org/2000/svg" xmlns:xlink="http://www.w3.org/1999/xlink" contentScriptType="application/ecmascript" contentStyleType="text/css" height="378px" preserveAspectRatio="none" style="width:514px;height:378px;background:#FFFFFF;" version="1.1" viewBox="0 0 514 378" width="514px" zoomAndPan="magnify"><defs><filter height="300%" id="f1scy092yb6b6h" width="300%" x="-1" y="-1"><feGaussianBlur result="blurOut" stdDeviation="2.0"/><feColorMatrix in="blurOut" result="blurOut2" type="matrix" values="0 0 0 0 0 0 0 0 0 0 0 0 0 0 0 0 0 0 .4 0"/><feOffset dx="4.0" dy="4.0" in="blurOut2" result="blurOut3"/><feBlend in="SourceGraphic" in2="blurOut3" mode="normal"/></filter></defs><g><!--MD5=[2ce0c9fb7f55b1e256ab28a8ea6b25ec]
class Customer--><rect codeLine="1" fill="#FEFECE" filter="url(#f1scy092yb6b6h)" height="112.0234" id="Customer" style="stroke:#A80036;stroke-width:1.5;" width="165" x="261" y="7"/><ellipse cx="310.25" cy="23" fill="#ADD1B2" rx="11" ry="11" style="stroke:#A80036;stroke-width:1.0;"/><path d="M312.5938,18.6719 C311.6563,18.2344 311.0625,18.0938 310.1875,18.0938 C307.5625,18.0938 305.5625,20.1719 305.5625,22.8906 L305.5625,24.0156 C305.5625,26.5938 307.6719,28.4844 310.5625,28.4844 C311.7813,28.4844 312.9375,28.1875 313.6875,27.6406 C314.2656,27.2344 314.5938,26.7813 314.5938,26.3906 C314.5938,25.9375 314.2031,25.5469 313.7344,25.5469 C313.5156,25.5469 313.3125,25.625 313.125,25.8125 C312.6719,26.2969 312.6719,26.2969 312.4844,26.3906 C312.0625,26.6563 311.375,26.7813 310.6094,26.7813 C308.5625,26.7813 307.2656,25.6875 307.2656,23.9844 L307.2656,22.8906 C307.2656,21.1094 308.5156,19.7969 310.25,19.7969 C310.8281,19.7969 311.4375,19.9531 311.9063,20.2031 C312.3906,20.4844 312.5625,20.7031 312.6563,21.1094 C312.7188,21.5156 312.75,21.6406 312.8906,21.7656 C313.0313,21.9063 313.2656,22.0156 313.4844,22.0156 C313.75,22.0156 314.0156,21.875 314.1875,21.6563 C314.2969,21.5 314.3281,21.3125 314.3281,20.8906 L314.3281,19.4688 C314.3281,19.0313 314.3125,18.9063 314.2188,18.75 C314.0625,18.4844 313.7813,18.3438 313.4844,18.3438 C313.1875,18.3438 312.9844,18.4375 312.7656,18.75 L312.5938,18.6719 Z " fill="#000000"/><text fill="#000000" font-family="sans-serif" font-size="12" lengthAdjust="spacing" textLength="58" x="330.75" y="27.1543">Customer</text><line style="stroke:#A80036;stroke-width:1.5;" x1="262" x2="425" y1="39" y2="39"/><rect fill="none" height="6" style="stroke:#C82930;stroke-width:1.0;" width="6" x="269" y="47"/><text fill="#000000" font-family="sans-serif" font-size="11" lengthAdjust="spacing" textLength="94" x="281" y="53.2104">customerId: long</text><rect fill="none" height="6" style="stroke:#C82930;stroke-width:1.0;" width="6" x="269" y="59.8047"/><text fill="#000000" font-family="sans-serif" font-size="11" lengthAdjust="spacing" textLength="93" x="281" y="66.0151">firstName: string</text><rect fill="none" height="6" style="stroke:#C82930;stroke-width:1.0;" width="6" x="269" y="72.6094"/><text fill="#000000" font-family="sans-serif" font-size="11" lengthAdjust="spacing" textLength="92" x="281" y="78.8198">lastName: string</text><rect fill="none" height="6" style="stroke:#C82930;stroke-width:1.0;" width="6" x="269" y="85.4141"/><text fill="#000000" font-family="sans-serif" font-size="11" lengthAdjust="spacing" textLength="139" x="281" y="91.6245">bookings: List&lt;Booking&gt;</text><rect fill="none" height="6" style="stroke:#C82930;stroke-width:1.0;" width="6" x="269" y="98.2188"/><text fill="#000000" font-family="sans-serif" font-size="11" lengthAdjust="spacing" textLength="106" x="281" y="104.4292">contact: Employee</text><line style="stroke:#A80036;stroke-width:1.5;" x1="262" x2="425" y1="111.0234" y2="111.0234"/><!--MD5=[7421f545a0d8420c5bec41e74b387d9c]
class Employee--><rect codeLine="9" fill="#FEFECE" filter="url(#f1scy092yb6b6h)" height="112.0234" id="Employee" style="stroke:#A80036;stroke-width:1.5;" width="255" x="245" y="246.5"/><ellipse cx="338.25" cy="262.5" fill="#ADD1B2" rx="11" ry="11" style="stroke:#A80036;stroke-width:1.0;"/><path d="M340.5938,258.1719 C339.6563,257.7344 339.0625,257.5938 338.1875,257.5938 C335.5625,257.5938 333.5625,259.6719 333.5625,262.3906 L333.5625,263.5156 C333.5625,266.0938 335.6719,267.9844 338.5625,267.9844 C339.7813,267.9844 340.9375,267.6875 341.6875,267.1406 C342.2656,266.7344 342.5938,266.2813 342.5938,265.8906 C342.5938,265.4375 342.2031,265.0469 341.7344,265.0469 C341.5156,265.0469 341.3125,265.125 341.125,265.3125 C340.6719,265.7969 340.6719,265.7969 340.4844,265.8906 C340.0625,266.1563 339.375,266.2813 338.6094,266.2813 C336.5625,266.2813 335.2656,265.1875 335.2656,263.4844 L335.2656,262.3906 C335.2656,260.6094 336.5156,259.2969 338.25,259.2969 C338.8281,259.2969 339.4375,259.4531 339.9063,259.7031 C340.3906,259.9844 340.5625,260.2031 340.6563,260.6094 C340.7188,261.0156 340.75,261.1406 340.8906,261.2656 C341.0313,261.4063 341.2656,261.5156 341.4844,261.5156 C341.75,261.5156 342.0156,261.375 342.1875,261.1563 C342.2969,261 342.3281,260.8125 342.3281,260.3906 L342.3281,258.9688 C342.3281,258.5313 342.3125,258.4063 342.2188,258.25 C342.0625,257.9844 341.7813,257.8438 341.4844,257.8438 C341.1875,257.8438 340.9844,257.9375 340.7656,258.25 L340.5938,258.1719 Z " fill="#000000"/><text fill="#000000" font-family="sans-serif" font-size="12" lengthAdjust="spacing" textLength="60" x="358.75" y="266.6543">Employee</text><line style="stroke:#A80036;stroke-width:1.5;" x1="246" x2="499" y1="278.5" y2="278.5"/><rect fill="none" height="6" style="stroke:#C82930;stroke-width:1.0;" width="6" x="253" y="286.5"/><text fill="#000000" font-family="sans-serif" font-size="11" lengthAdjust="spacing" textLength="100" x="265" y="292.7104">employeeId: long</text><rect fill="none" height="6" style="stroke:#C82930;stroke-width:1.0;" width="6" x="253" y="299.3047"/><text fill="#000000" font-family="sans-serif" font-size="11" lengthAdjust="spacing" textLength="93" x="265" y="305.5151">firstName: string</text><rect fill="none" height="6" style="stroke:#C82930;stroke-width:1.0;" width="6" x="253" y="312.1094"/><text fill="#000000" font-family="sans-serif" font-size="11" lengthAdjust="spacing" textLength="92" x="265" y="318.3198">lastName: string</text><rect fill="none" height="6" style="stroke:#C82930;stroke-width:1.0;" width="6" x="253" y="324.9141"/><text fill="#000000" font-family="sans-serif" font-size="11" lengthAdjust="spacing" textLength="164" x="265" y="331.1245">customers: List&lt;Customers&gt;</text><rect fill="none" height="6" style="stroke:#C82930;stroke-width:1.0;" width="6" x="253" y="337.7188"/><text fill="#000000" font-family="sans-serif" font-size="11" lengthAdjust="spacing" textLength="229" x="265" y="343.9292">responsibleForBookings: List&lt;Bookings&gt;</text><line style="stroke:#A80036;stroke-width:1.5;" x1="246" x2="499" y1="350.5234" y2="350.5234"/><!--MD5=[c6c2aa411a70f0170997fbec83374a43]
class Booking--><rect codeLine="17" fill="#FEFECE" filter="url(#f1scy092yb6b6h)" height="124.8281" id="Booking" style="stroke:#A80036;stroke-width:1.5;" width="203" x="7" y="240"/><ellipse cx="79.75" cy="256" fill="#ADD1B2" rx="11" ry="11" style="stroke:#A80036;stroke-width:1.0;"/><path d="M82.0938,251.6719 C81.1563,251.2344 80.5625,251.0938 79.6875,251.0938 C77.0625,251.0938 75.0625,253.1719 75.0625,255.8906 L75.0625,257.0156 C75.0625,259.5938 77.1719,261.4844 80.0625,261.4844 C81.2813,261.4844 82.4375,261.1875 83.1875,260.6406 C83.7656,260.2344 84.0938,259.7813 84.0938,259.3906 C84.0938,258.9375 83.7031,258.5469 83.2344,258.5469 C83.0156,258.5469 82.8125,258.625 82.625,258.8125 C82.1719,259.2969 82.1719,259.2969 81.9844,259.3906 C81.5625,259.6563 80.875,259.7813 80.1094,259.7813 C78.0625,259.7813 76.7656,258.6875 76.7656,256.9844 L76.7656,255.8906 C76.7656,254.1094 78.0156,252.7969 79.75,252.7969 C80.3281,252.7969 80.9375,252.9531 81.4063,253.2031 C81.8906,253.4844 82.0625,253.7031 82.1563,254.1094 C82.2188,254.5156 82.25,254.6406 82.3906,254.7656 C82.5313,254.9063 82.7656,255.0156 82.9844,255.0156 C83.25,255.0156 83.5156,254.875 83.6875,254.6563 C83.7969,254.5 83.8281,254.3125 83.8281,253.8906 L83.8281,252.4688 C83.8281,252.0313 83.8125,251.9063 83.7188,251.75 C83.5625,251.4844 83.2813,251.3438 82.9844,251.3438 C82.6875,251.3438 82.4844,251.4375 82.2656,251.75 L82.0938,251.6719 Z " fill="#000000"/><text fill="#000000" font-family="sans-serif" font-size="12" lengthAdjust="spacing" textLength="49" x="100.25" y="260.1543">Booking</text><line style="stroke:#A80036;stroke-width:1.5;" x1="8" x2="209" y1="272" y2="272"/><rect fill="none" height="6" style="stroke:#C82930;stroke-width:1.0;" width="6" x="15" y="280"/><text fill="#000000" font-family="sans-serif" font-size="11" lengthAdjust="spacing" textLength="85" x="27" y="286.2104">bookingId: long</text><rect fill="none" height="6" style="stroke:#C82930;stroke-width:1.0;" width="6" x="15" y="292.8047"/><text fill="#000000" font-family="sans-serif" font-size="11" lengthAdjust="spacing" textLength="65" x="27" y="299.0151">flight: Flight</text><rect fill="none" height="6" style="stroke:#C82930;stroke-width:1.0;" width="6" x="15" y="305.6094"/><text fill="#000000" font-family="sans-serif" font-size="11" lengthAdjust="spacing" textLength="67" x="27" y="311.8198">price: BigInt</text><rect fill="none" height="6" style="stroke:#C82930;stroke-width:1.0;" width="6" x="15" y="318.4141"/><text fill="#000000" font-family="sans-serif" font-size="11" lengthAdjust="spacing" textLength="177" x="27" y="324.6245">dateOfBooking: LocalDateTime</text><rect fill="none" height="6" style="stroke:#C82930;stroke-width:1.0;" width="6" x="15" y="331.2188"/><text fill="#000000" font-family="sans-serif" font-size="11" lengthAdjust="spacing" textLength="97" x="27" y="337.4292">isCancelled: bool</text><rect fill="none" height="6" style="stroke:#C82930;stroke-width:1.0;" width="6" x="15" y="344.0234"/><text fill="#000000" font-family="sans-serif" font-size="11" lengthAdjust="spacing" textLength="110" x="27" y="350.2339">bookedClass: string</text><line style="stroke:#A80036;stroke-width:1.5;" x1="8" x2="209" y1="356.8281" y2="356.8281"/><!--MD5=[bd6e5d4dd3d7814cbdc3148d3ed1ec4b]
class Flight--><rect codeLine="26" fill="#FEFECE" filter="url(#f1scy092yb6b6h)" height="112.0234" id="Flight" style="stroke:#A80036;stroke-width:1.5;" width="175" x="21" y="7"/><ellipse cx="88.25" cy="23" fill="#ADD1B2" rx="11" ry="11" style="stroke:#A80036;stroke-width:1.0;"/><path d="M90.5938,18.6719 C89.6563,18.2344 89.0625,18.0938 88.1875,18.0938 C85.5625,18.0938 83.5625,20.1719 83.5625,22.8906 L83.5625,24.0156 C83.5625,26.5938 85.6719,28.4844 88.5625,28.4844 C89.7813,28.4844 90.9375,28.1875 91.6875,27.6406 C92.2656,27.2344 92.5938,26.7813 92.5938,26.3906 C92.5938,25.9375 92.2031,25.5469 91.7344,25.5469 C91.5156,25.5469 91.3125,25.625 91.125,25.8125 C90.6719,26.2969 90.6719,26.2969 90.4844,26.3906 C90.0625,26.6563 89.375,26.7813 88.6094,26.7813 C86.5625,26.7813 85.2656,25.6875 85.2656,23.9844 L85.2656,22.8906 C85.2656,21.1094 86.5156,19.7969 88.25,19.7969 C88.8281,19.7969 89.4375,19.9531 89.9063,20.2031 C90.3906,20.4844 90.5625,20.7031 90.6563,21.1094 C90.7188,21.5156 90.75,21.6406 90.8906,21.7656 C91.0313,21.9063 91.2656,22.0156 91.4844,22.0156 C91.75,22.0156 92.0156,21.875 92.1875,21.6563 C92.2969,21.5 92.3281,21.3125 92.3281,20.8906 L92.3281,19.4688 C92.3281,19.0313 92.3125,18.9063 92.2188,18.75 C92.0625,18.4844 91.7813,18.3438 91.4844,18.3438 C91.1875,18.3438 90.9844,18.4375 90.7656,18.75 L90.5938,18.6719 Z " fill="#000000"/><text fill="#000000" font-family="sans-serif" font-size="12" lengthAdjust="spacing" textLength="32" x="108.75" y="27.1543">Flight</text><line style="stroke:#A80036;stroke-width:1.5;" x1="22" x2="195" y1="39" y2="39"/><rect fill="none" height="6" style="stroke:#C82930;stroke-width:1.0;" width="6" x="29" y="47"/><text fill="#000000" font-family="sans-serif" font-size="11" lengthAdjust="spacing" textLength="69" x="41" y="53.2104">flightId: long</text><rect fill="none" height="6" style="stroke:#C82930;stroke-width:1.0;" width="6" x="29" y="59.8047"/><text fill="#000000" font-family="sans-serif" font-size="11" lengthAdjust="spacing" textLength="124" x="41" y="66.0151">bookingsAvailable: int</text><rect fill="none" height="6" style="stroke:#C82930;stroke-width:1.0;" width="6" x="29" y="72.6094"/><text fill="#000000" font-family="sans-serif" font-size="11" lengthAdjust="spacing" textLength="149" x="41" y="78.8198">flightDate: LocalDateTime</text><rect fill="none" height="6" style="stroke:#C82930;stroke-width:1.0;" width="6" x="29" y="85.4141"/><text fill="#000000" font-family="sans-serif" font-size="11" lengthAdjust="spacing" textLength="74" x="41" y="91.6245">airport: string</text><rect fill="none" height="6" style="stroke:#C82930;stroke-width:1.0;" width="6" x="29" y="98.2188"/><text fill="#000000" font-family="sans-serif" font-size="11" lengthAdjust="spacing" textLength="101" x="41" y="104.4292">destination: string</text><line style="stroke:#A80036;stroke-width:1.5;" x1="22" x2="195" y1="111.0234" y2="111.0234"/><!--MD5=[46a6c4790507828b8686583c940a361f]
link Customer to Employee--><path codeLine="34" d="M350.226,119.084 C354.694,155.673 360.559,203.711 365.15,241.305 " fill="none" id="Customer-to-Employee" style="stroke:#A80036;stroke-width:1.0;"/><polygon fill="#A80036" points="365.76,246.304,368.6375,236.8849,365.1528,241.341,360.6967,237.8563,365.76,246.304" style="stroke:#A80036;stroke-width:1.0;"/><text fill="#000000" font-family="sans-serif" font-size="13" lengthAdjust="spacing" textLength="7" x="343.6192" y="138.9069">*</text><text fill="#000000" font-family="sans-serif" font-size="13" lengthAdjust="spacing" textLength="8" x="356.4511" y="235.6146">1</text><!--MD5=[4f3fa4b5142a6857d76fe3fbabbf0a8c]
link Customer to Booking--><path codeLine="35" d="M288.996,119.084 C254.589,153.856 209.952,198.969 173.676,235.631 " fill="none" id="Customer-to-Booking" style="stroke:#A80036;stroke-width:1.0;"/><polygon fill="#A80036" points="169.745,239.604,178.9187,236.0202,173.2619,236.0499,173.2322,230.3932,169.745,239.604" style="stroke:#A80036;stroke-width:1.0;"/><text fill="#000000" font-family="sans-serif" font-size="13" lengthAdjust="spacing" textLength="8" x="273.8658" y="138.9069">1</text><text fill="#000000" font-family="sans-serif" font-size="13" lengthAdjust="spacing" textLength="7" x="169.0609" y="228.988">*</text><!--MD5=[b35d46d0f892ed9287069edae2498853]
reverse link Flight to Booking--><path codeLine="36" d="M108.5,124.223 C108.5,159.522 108.5,204.02 108.5,239.604 " fill="none" id="Flight-backto-Booking" style="stroke:#A80036;stroke-width:1.0;"/><polygon fill="#A80036" points="108.5,119.084,104.5,128.084,108.5,124.084,112.5,128.084,108.5,119.084" style="stroke:#A80036;stroke-width:1.0;"/><text fill="#000000" font-family="sans-serif" font-size="13" lengthAdjust="spacing" textLength="7" x="101.0734" y="138.9069">*</text><text fill="#000000" font-family="sans-serif" font-size="13" lengthAdjust="spacing" textLength="8" x="100.0625" y="228.988">1</text><!--MD5=[43b8989274ab1995a8e7544cf1845dd4]
@startuml
class Customer {
- customerId: long
- firstName: string
- lastName: string
- bookings: List<Booking>
- contact: Employee
}

class Employee {
- employeeId: long
- firstName: string
- lastName: string
- customers: List<Customers>
- responsibleForBookings: List<Bookings>
}

class Booking {
- bookingId: long
- flight: Flight
- price: BigInt
- dateOfBooking: LocalDateTime
- isCancelled: bool
- bookedClass: string
}

class Flight {
- flightId: long
- bookingsAvailable: int
- flightDate: LocalDateTime
- airport: string
- destination: string
}

Customer "*" - - -> "1" Employee
Customer "1" - - -> "*" Booking
Booking "1" - -up-> "*" Flight
@enduml

PlantUML version 1.2021.12(Tue Oct 05 16:01:58 UTC 2021)
(GPL source distribution)
Java Runtime: Java(TM) SE Runtime Environment
JVM: Java HotSpot(TM) 64-Bit Server VM
Default Encoding: UTF-8
Language: en
Country: US
--></g></svg>