<?xml version="1.0" encoding="UTF-8" standalone="no"?><svg xmlns="http://www.w3.org/2000/svg" xmlns:xlink="http://www.w3.org/1999/xlink" contentScriptType="application/ecmascript" contentStyleType="text/css" height="266px" preserveAspectRatio="none" style="width:412px;height:266px;background:#FFFFFF;" version="1.1" viewBox="0 0 412 266" width="412px" zoomAndPan="magnify"><defs><filter height="300%" id="f1fek2qwjodh1l" width="300%" x="-1" y="-1"><feGaussianBlur result="blurOut" stdDeviation="2.0"/><feColorMatrix in="blurOut" result="blurOut2" type="matrix" values="0 0 0 0 0 0 0 0 0 0 0 0 0 0 0 0 0 0 .4 0"/><feOffset dx="4.0" dy="4.0" in="blurOut2" result="blurOut3"/><feBlend in="SourceGraphic" in2="blurOut3" mode="normal"/></filter></defs><g><!--MD5=[b1938732b3a907f80633a2aa87dfa44e]
cluster TravelAgency--><rect fill="#FFFFFF" filter="url(#f1fek2qwjodh1l)" height="247" style="stroke:#000000;stroke-width:1.5;" width="278" x="122" y="7"/><text fill="#000000" font-family="sans-serif" font-size="14" font-weight="bold" lengthAdjust="spacing" textLength="109" x="206.5" y="21.9951">TravelAgency</text><ellipse cx="261.212" cy="60.9424" fill="#FEFECE" filter="url(#f1fek2qwjodh1l)" rx="82.712" ry="18.9424" style="stroke:#A80036;stroke-width:1.5;"/><text fill="#000000" font-family="sans-serif" font-size="14" lengthAdjust="spacing" textLength="125" x="198.0208" y="64.0215">Manage bookings</text><ellipse cx="261.1781" cy="132.1356" fill="#FEFECE" filter="url(#f1fek2qwjodh1l)" rx="71.1781" ry="16.6356" style="stroke:#A80036;stroke-width:1.5;"/><text fill="#000000" font-family="sans-serif" font-size="14" lengthAdjust="spacing" textLength="96" x="210.1781" y="135.8832">Sell bookings</text><ellipse cx="261.1205" cy="211.0241" fill="#FEFECE" filter="url(#f1fek2qwjodh1l)" rx="123.1205" ry="27.0241" style="stroke:#A80036;stroke-width:1.5;"/><text fill="#000000" font-family="sans-serif" font-size="14" lengthAdjust="spacing" textLength="214" x="154.1205" y="213.8708">See Statistic of sold bookings</text><!--MD5=[92848cbaf65985a669855153c5362c37]
entity customer--><ellipse cx="42" cy="30" fill="#FEFECE" filter="url(#f1fek2qwjodh1l)" rx="8" ry="8" style="stroke:#A80036;stroke-width:1.5;"/><path d="M42,38 L42,65 M29,46 L55,46 M42,65 L29,80 M42,65 L55,80 " fill="none" filter="url(#f1fek2qwjodh1l)" style="stroke:#A80036;stroke-width:1.5;"/><text fill="#000000" font-family="sans-serif" font-size="14" lengthAdjust="spacing" textLength="70" x="7" y="98.4951">Customer</text><!--MD5=[7acbc48b08a6115d6c9ec7ad4d3b30cc]
entity employee--><ellipse cx="42" cy="163" fill="#FEFECE" filter="url(#f1fek2qwjodh1l)" rx="8" ry="8" style="stroke:#A80036;stroke-width:1.5;"/><path d="M42,171 L42,198 M29,179 L55,179 M42,198 L29,213 M42,198 L55,213 " fill="none" filter="url(#f1fek2qwjodh1l)" style="stroke:#A80036;stroke-width:1.5;"/><text fill="#000000" font-family="sans-serif" font-size="14" lengthAdjust="spacing" textLength="72" x="6" y="231.4951">Employee</text><!--MD5=[b7e60ddd076c55b8117ab22169e7a5ef]
link customer to manage-bookings--><path d="M77.3843,61 C103.135,61 139.555,61 173.103,61 " fill="none" id="customer-to-manage-bookings" style="stroke:#A80036;stroke-width:1.0;"/><polygon fill="#A80036" points="178.46,61,169.46,57,173.46,61,169.46,65,178.46,61" style="stroke:#A80036;stroke-width:1.0;"/><!--MD5=[7722c61cc7f9903b07eb07251f9b8923]
link employee to sell-bookings--><path d="M78.0817,179.6392 C89.4359,175.2669 102.1549,170.6555 114,167 C142.84,158.1 175.46,150.09 202.541,143.987 " fill="none" id="employee-to-sell-bookings" style="stroke:#A80036;stroke-width:1.0;"/><polygon fill="#A80036" points="207.531,142.869,197.8744,140.9325,202.6519,143.9617,199.6227,148.7391,207.531,142.869" style="stroke:#A80036;stroke-width:1.0;"/><!--MD5=[d35e6acf2ac1874861de98d115beffa7]
link employee to booking-statistics--><path d="M78.3478,196.7692 C95.5422,198.1162 117.325,199.8227 139.785,201.5822 " fill="none" id="employee-to-booking-statistics" style="stroke:#A80036;stroke-width:1.0;"/><polygon fill="#A80036" points="144.89,201.9822,136.2294,197.2924,139.9052,201.5922,135.6054,205.268,144.89,201.9822" style="stroke:#A80036;stroke-width:1.0;"/><!--MD5=[4a442fffa07cb34b1983ddd7082b1009]
@startuml
left to right direction

:Customer: as customer
:Employee: as employee

rectangle TravelAgency{
(Manage bookings) as (manage-bookings)
(Sell bookings) as (sell-bookings)
(See Statistic of sold bookings) as (booking-statistics)

customer - -> (manage-bookings)
employee - -> (sell-bookings)
employee - -> (booking-statistics)
}
@enduml

PlantUML version 1.2021.12(Tue Oct 05 16:01:58 UTC 2021)
(GPL source distribution)
Java Runtime: Java(TM) SE Runtime Environment
JVM: Java HotSpot(TM) 64-Bit Server VM
Default Encoding: UTF-8
Language: en
Country: US
--></g></svg>